<svg width="16" height="16" viewBox="0 0 16 16" fill="none" xmlns="http://www.w3.org/2000/svg">
<path d="M8.70711 0.292832C8.31658 -0.0976921 7.68342 -0.0976921 7.29289 0.292832L0.292893 7.29283C-0.0976311 7.68336 -0.0976311 8.31652 0.292893 8.70705C0.683417 9.09757 1.31658 9.09757 1.70711 8.70705L2 8.41415V14.9999C2 15.5522 2.44772 15.9999 3 15.9999H5C5.55228 15.9999 6 15.5522 6 14.9999V12.9999C6 12.4477 6.44772 11.9999 7 11.9999H9C9.55229 11.9999 10 12.4477 10 12.9999V14.9999C10 15.5522 10.4477 15.9999 11 15.9999H13C13.5523 15.9999 14 15.5522 14 14.9999V8.41415L14.2929 8.70705C14.6834 9.09757 15.3166 9.09757 15.7071 8.70705C16.0976 8.31652 16.0976 7.68336 15.7071 7.29283L8.70711 0.292832Z" fill="#111827"/>
</svg>
